<svg width="51" height="22" viewBox="0 0 51 22" fill="none" xmlns="http://www.w3.org/2000/svg">
<path d="M2.71973 9.22591H43.7349L36.2382 2.77311C35.8877 2.47087 35.719 2.08121 35.7694 1.68986C35.8197 1.29851 36.0849 0.937522 36.5067 0.686308C36.9284 0.435095 37.4722 0.314236 38.0183 0.350318C38.5644 0.3864 39.0681 0.576468 39.4186 0.878709L49.7447 9.75871C49.8142 9.82934 49.8763 9.90354 49.9306 9.98071C49.9306 10.0547 49.9306 10.0991 50.0752 10.1731C50.1688 10.3428 50.2178 10.5234 50.2197 10.7059C50.2178 10.8884 50.1688 11.069 50.0752 11.2387C50.0752 11.3127 50.0752 11.3571 49.9306 11.4311C49.8763 11.5083 49.8142 11.5825 49.7447 11.6531L39.4186 20.5331C39.2245 20.7002 38.9813 20.8345 38.7065 20.9266C38.4316 21.0187 38.1318 21.0663 37.8284 21.0659C37.3459 21.0666 36.8782 20.9461 36.5067 20.7255C36.2976 20.6013 36.1247 20.4487 35.998 20.2765C35.8713 20.1043 35.7932 19.9159 35.7683 19.722C35.7434 19.5282 35.772 19.3327 35.8527 19.1468C35.9333 18.9609 36.0643 18.7883 36.2382 18.6387L43.7349 12.1859H2.71973C2.172 12.1859 1.6467 12.03 1.2594 11.7524C0.872097 11.4749 0.65451 11.0984 0.65451 10.7059C0.65451 10.3134 0.872097 9.93694 1.2594 9.65939C1.6467 9.38184 2.172 9.22591 2.71973 9.22591Z" fill="white"/>
</svg>
