<svg width="132" height="190" viewBox="0 0 132 190" fill="none" xmlns="http://www.w3.org/2000/svg">
<g clip-path="url(#clip0)">
<path d="M-19.1816 103.487C-13.4847 103.871 -8.26186 108.629 -5.17587 113.115C-1.98851 117.514 0.217645 122.395 4.01316 126.283C7.97899 130.372 12.8733 133.506 18.2378 135.553C33.9422 141.849 50.3065 135.145 61.975 124.104C76.4127 110.383 81.95 92.0645 75.8218 72.861C69.5557 53.0824 46.544 37.909 25.6626 42.5427C15.6031 44.7977 6.32237 51.0624 -0.274009 58.8672C-6.87039 66.6721 -11.4961 75.5815 -21.5839 79.2428C-22.0745 79.4833 -22.7923 78.0144 -22.2166 77.8749C-10.6731 73.6783 -6.22603 62.5 1.89491 54.4474C8.66574 47.8781 17.3059 42.4988 26.6559 40.8417C44.1031 37.892 63.6719 48.3624 72.6138 63.2941C81.5556 78.2258 81.9748 98.265 72.7961 113.085C64.6797 126.491 49.9296 138.401 33.865 139.494C23.9351 140.258 13.952 136.227 6.51925 129.874C2.76028 126.647 -0.102646 122.838 -2.64529 118.586C-6.1774 112.749 -11.2748 105.465 -18.7517 105.025C-19.2099 104.893 -19.7411 103.44 -19.1816 103.487Z" fill="white"/>
<path d="M-19.0437 104.062C-11.0235 104.735 -7.6172 108.777 -2.98218 114.895C3.16946 123.019 9.13045 130.093 18.789 133.533C26.8014 136.46 33.9742 137.156 42.3916 135.42C46.2192 134.615 50.063 133.622 53.2417 131.635C57.7219 128.724 62.0115 124.764 65.6402 120.842C72.5934 113.255 76.7974 104.874 77.7738 94.7192C78.6002 85.2092 76.4099 75.8217 72.3748 67.1246C64.4059 49.6449 43.762 33.1676 23.6391 40.9642C14.3136 44.5016 7.48623 53.8836 0.614031 60.5383C-6.78117 67.8066 -10.0485 77.2995 -21.142 79.5616C-21.7178 79.7011 -22.249 78.2478 -21.7746 78.1937C-10.2068 75.8775 -6.85839 65.4522 0.995001 58.3163C2.8357 56.5925 4.11685 54.8217 5.87239 52.9969C8.03338 50.8303 10.466 48.7805 12.627 46.614C16.1057 43.3372 19.8236 40.55 24.4621 39.061C41.5766 33.4537 60.3873 45.0814 69.2074 59.2516C77.4314 72.7143 82.1485 90.8602 76.5988 106.078C73.2626 115.284 66.3093 122.871 59.0114 129.02C55.0583 132.351 51.7782 134.424 46.7667 135.881C42.635 136.943 38.4182 137.904 34.0959 137.917C25.3337 138.215 16.1171 135.093 9.24802 129.821C5.37148 126.866 2.22067 123.127 -0.727418 119.217C-2.9253 116.403 -4.92045 113.418 -7.23589 110.876C-10.7597 107.105 -13.5778 106.023 -18.5125 105.515C-19.1734 105.554 -19.6033 104.015 -19.0437 104.062Z" fill="white"/>
<path d="M-19.0761 104.435C-12.1505 106.894 -7.01279 111.552 -2.7184 117.265C0.979899 122.271 5.13224 126.377 10.0631 130.171C13.7531 133.111 17.7513 136.827 21.7778 139.137C38.6137 148.627 55.6424 134.278 65.4213 121.2C77.2232 105.379 78.2475 86.0248 69.1271 68.8242C61.3044 53.9864 48.2633 39.7437 30.0173 42.1568C19.09 43.5876 9.27008 50.6523 1.75731 58.1924C-5.73925 65.5461 -11.3096 75.5971 -21.0892 80.0356C-21.5798 80.2761 -22.2124 78.9082 -21.7218 78.6677C-11.0624 73.8335 -4.87183 62.0501 3.69109 54.3164C10.7336 47.8638 19.39 42.298 28.9103 40.843C45.8507 38.3203 58.2874 49.7887 66.7141 63.0807C75.3963 76.6757 79.5659 93.5548 73.6108 109.115C69.9704 118.576 63.6499 127.531 55.9464 134.022C49.9662 139.061 41.9342 143.928 33.8653 143.814C23.915 143.731 17.3621 136.982 10.051 131.391C5.56217 127.915 1.47877 124.098 -1.98025 119.581C-6.61527 113.463 -11.2462 108.379 -18.8165 105.771C-19.2747 105.639 -19.6195 104.201 -19.0761 104.435Z" fill="white"/>
<path d="M75.4458 38.2685L75.5309 38.3696C75.8878 38.5874 76.2973 39.2792 76.0784 39.6364C75.2027 41.0656 73.9864 42.0905 72.7538 43.3019C72.247 43.7289 71.7078 44.5289 70.9618 44.4663C70.5887 44.435 70.1791 43.7432 70.2115 43.3702C70.3574 41.692 71.7926 40.3098 72.8387 39.0828C73.6819 38.0266 75.0969 35.7975 76.4349 35.5341C76.9093 35.48 77.3027 36.3582 77.2703 36.7312C76.6662 38.277 75.5189 39.5895 74.4728 40.8165C73.3093 42.3154 72.2146 44.1018 70.9659 45.4997C70.4591 45.9267 69.9968 44.7609 70.1305 44.3026C70.4994 43.3005 71.4279 42.3453 71.9671 41.5454C73.0455 39.9454 74.3794 38.6486 75.4416 37.2351C75.7619 36.7924 76.4959 38.0749 76.277 38.4322C75.1986 40.0322 74.035 41.5311 72.8714 43.03C72.4498 43.5581 71.8171 42.1902 72.036 41.8329C72.709 40.5746 73.6375 39.6194 74.5659 38.6643C75.1741 38.1518 75.6119 37.4372 76.4756 37.228C76.7635 37.1582 77.0717 37.9354 77.1406 38.2229C77.6233 40.2357 74.5339 43.3573 72.6201 43.7602C72.0443 43.8997 71.513 42.4464 71.9874 42.3923C73.3255 42.1289 76.569 39.3959 76.2404 37.7717C76.4959 38.0749 76.7514 38.3781 76.9055 38.7667C76.1432 38.8906 75.1824 40.2186 74.6756 40.6457C73.9498 41.43 73.2241 42.2143 72.77 43.1154C72.4294 42.7111 72.2753 42.3225 71.9347 41.9183C73.0983 40.4194 74.2618 38.9205 75.3403 37.3205C75.6809 37.7248 75.835 38.1134 76.1756 38.5176C75.2148 39.8457 73.9822 41.0571 73.0214 42.3852C72.3808 43.2706 71.1483 44.4819 70.8807 45.3986C70.5401 44.9944 70.2846 44.6912 70.0454 44.2015C71.2779 42.9902 72.1698 41.3745 73.1307 40.0465C74.1929 38.633 75.6281 37.2508 76.3335 35.6195C76.6742 36.0237 76.8283 36.4123 77.1689 36.8166C76.1187 37.0102 74.9228 38.882 74.197 39.6664C73.2524 40.808 71.4117 42.5318 71.1807 44.109C70.9252 43.8058 70.7711 43.4172 70.4305 43.013C71.0752 43.161 72.2388 41.6621 72.6442 41.3204C73.5727 40.3653 74.3997 39.4956 75.0565 38.4237C75.2106 38.8123 75.4499 39.3019 75.604 39.6905L75.5189 39.5895C75.162 39.3717 74.8173 37.934 75.4458 38.2685Z" fill="white"/>
<path d="M77.3514 35.7989C78.3894 36.8252 77.7854 38.371 76.9421 39.4272C76.0826 40.6699 74.9514 41.7959 73.9216 42.8364C73.3135 43.3489 72.385 44.304 71.6227 44.4279C71.1483 44.482 70.9253 43.8059 70.8563 43.5183C70.3899 41.3191 75.5062 32.1692 77.2986 35.3249C78.0326 36.6074 76.9542 38.2073 76.196 39.3646C75.2028 41.0657 73.6541 43.7531 71.6227 44.4279C71.2335 44.583 70.9253 43.8059 70.8563 43.5183C70.7305 41.7234 72.9766 39.6579 73.9375 38.3298C74.6632 37.5455 76.0619 35.5028 77.1852 36.6302C79.4317 38.8849 73.5689 43.6521 72.4378 44.778C72.0323 45.1197 71.2983 43.8372 71.6024 43.5809C73.2566 41.8415 75.2838 40.1333 76.5122 37.8885C77.169 36.8166 75.9202 38.2145 75.7013 38.5718C75.1945 38.9988 74.858 39.628 74.4364 40.1561C73.9134 40.7696 73.4755 41.4842 72.9525 42.0977C72.6322 42.5404 71.8051 43.4101 71.8579 43.8841C71.6024 43.5809 71.3469 43.2778 71.0915 42.9746C73.2242 42.2144 75.2959 38.9134 76.2364 36.7384C76.3377 36.653 76.5729 36.1092 76.5891 35.9227C76.5201 35.6352 76.4877 36.0081 76.285 36.179C75.5917 36.5904 75.0687 37.2039 74.6308 37.9184C73.5686 39.3319 71.6469 41.9881 71.9592 43.7987C71.7038 43.4955 71.4483 43.1923 71.1928 42.8892C72.3281 42.7966 73.5079 41.1112 74.4364 40.1561C74.9594 39.5426 75.5675 39.0301 76.0905 38.4166C76.1919 38.3312 77.0838 36.7156 77.169 36.8166C76.7432 36.3113 76.7553 35.0914 77.3514 35.7989Z" fill="white"/>
<path d="M89.9816 82.8772C89.8802 82.9626 89.7789 83.048 89.7627 83.2345C89.5234 82.7448 89.3693 82.3562 89.13 81.8666C92.1305 81.9306 95.0255 81.0466 98.0584 80.7376C99.1937 80.6451 101.614 79.8152 102.45 81.0123C102.535 81.1133 102.843 81.8905 102.454 82.0457C98.1032 83.4649 93.1362 83.3298 88.8384 85.2231C88.5991 84.7334 88.445 84.3448 88.3071 83.7697C90.306 83.4679 92.3374 82.7932 94.3363 82.4914C96.4366 82.1042 98.6059 82.0045 100.706 81.6173C100.86 82.0059 100.998 82.5809 101.152 82.9695C98.7803 83.24 96.6476 84.0002 94.3446 84.5582C92.3294 85.0465 90.3305 85.3483 88.4857 86.0387C88.2464 85.549 88.0923 85.1604 87.9544 84.5854C91.563 84.1369 95.2406 83.976 98.9344 83.6286C99.4088 83.5745 99.9401 85.0278 99.3806 84.9809C96.2463 85.3752 93.1607 85.2102 90.0102 85.791C89.5358 85.8451 88.9883 84.5782 89.4789 84.3377C91.4089 83.7483 93.4403 83.0736 95.3703 82.4842C96.0474 82.2593 98.8086 81.8337 98.9748 81.0024C99.1289 81.391 99.283 81.7796 99.5223 82.2692C96.9596 81.4906 92.6049 81.8765 90.2209 83.3669C89.9816 82.8772 89.8275 82.4886 89.5882 81.999C92.398 81.0139 95.3782 80.2309 98.188 79.2459C98.4273 79.7355 98.5814 80.1241 98.7193 80.6992C95.2972 81.1633 92.0291 82.016 88.7449 83.0552C88.1692 83.1947 87.5365 81.8268 88.1123 81.6873C91.3965 80.6481 94.851 79.811 98.2732 79.3469C98.7476 79.2928 99.2951 80.5597 98.8045 80.8002C95.9946 81.7853 93.1158 82.4829 90.2047 83.5533C89.7141 83.7939 89.0814 82.426 89.572 82.1854C91.9723 80.5086 96.5987 80.2394 99.2465 81.1191C99.7046 81.2515 99.9277 81.9276 99.7939 82.3859C99.6116 83.4037 97.6126 83.7055 96.749 83.9148C94.5311 84.5739 92.2119 85.3184 89.994 85.9775C89.7547 85.4878 89.6006 85.0992 89.4627 84.5241C92.6132 83.9433 95.784 84.2094 98.8331 83.714C98.9872 84.1026 99.1251 84.6777 99.2792 85.0663C95.5854 85.4137 92.0092 85.4892 88.2991 86.023C87.8247 86.0771 87.2773 84.8103 87.7679 84.5697C89.9006 83.8096 92.2726 83.5391 94.4904 82.88C96.5056 82.3917 98.4356 81.8023 100.536 81.4151C101.01 81.361 101.643 82.7289 100.982 82.7674C98.8817 83.1546 96.7124 83.2543 94.6121 83.6415C92.6132 83.9433 90.5818 84.6181 88.5829 84.9199C88.1085 84.974 87.561 83.7071 88.0516 83.4666C92.2481 81.6587 97.3165 81.7084 101.667 80.2892C101.635 80.6621 101.704 80.9496 101.671 81.3226C101.586 81.2215 97.5881 81.8251 97.0124 81.9646C94.539 82.3206 92.0333 83.0494 89.5072 82.9313C89.0328 82.9854 88.6556 81.9207 88.8745 81.5634C88.9759 81.478 89.0773 81.3926 89.0935 81.2061C89.3814 81.1364 90.3019 82.4345 89.9816 82.8772Z" fill="white"/>
<path d="M90.6657 122.567C89.5262 121.626 88.2854 120.771 87.1298 120.017C85.9903 119.076 84.8143 117.474 83.5573 116.805C83.2856 116.689 83.0788 115.826 82.7099 116.828C82.4586 117.558 85.3822 119.588 85.9945 120.109C87.1501 120.863 88.7478 121.937 90.1385 122.147C90.1913 122.621 90.3454 123.01 90.3981 123.484C89.1735 122.442 87.9327 121.587 86.5906 120.817C85.4349 120.062 84.4292 118.663 83.0709 118.079C83.1884 117.807 83.2898 117.722 83.4073 117.45C84.2469 119.681 88.5936 121.548 90.6657 122.567C90.8198 122.956 90.7874 123.329 90.8401 123.803C89.429 122.745 88.103 121.789 86.6919 120.731C86.0796 120.21 85.5525 119.79 84.9402 119.269C84.9402 119.269 83.7318 118.041 84.0562 118.632C84.7902 119.914 86.7933 120.646 87.8152 121.858C87.9855 122.061 88.464 123.04 87.9045 122.993C87.1584 122.93 86.5299 122.596 85.9176 122.075C84.4051 121.103 82.8926 120.13 81.4977 118.886C81.7004 118.716 81.818 118.444 81.9193 118.358C81.9883 118.646 82.702 119.081 82.8723 119.284C83.7401 120.108 84.7943 120.947 85.7635 121.686C87.0043 122.542 88.2289 123.584 89.267 124.61C89.4373 124.812 89.8996 125.978 89.2549 125.83C87.6249 125.129 86.2299 123.885 84.8188 122.828C83.9348 122.19 83.1522 121.467 82.2845 120.643C81.9276 120.425 81.076 119.415 80.6179 119.282C80.1597 119.15 79.7135 117.798 80.1717 117.93C81.2746 118.21 82.11 119.407 83.0791 120.146C84.8309 121.608 86.8219 123.559 88.9953 124.493C88.9629 124.866 88.9305 125.239 88.9832 125.713C87.2639 123.878 85.0215 122.657 83.286 121.009C82.5034 120.286 81.4491 119.446 81.0719 118.381C81.003 118.094 81.0678 117.348 81.4936 117.853C82.5479 118.693 83.6021 119.533 84.6726 120.186C85.4715 120.723 86.4244 121.648 87.4583 121.641C87.4259 122.014 87.4787 122.488 87.5476 122.775C86.4244 121.648 82.4668 119.625 82.7302 117.675C82.8964 116.844 83.456 116.891 84.0845 117.225C84.9846 117.676 85.8362 118.687 86.6188 119.41C88.1151 120.569 89.4411 121.525 90.6657 122.567C91.0225 122.785 91.5538 124.238 90.9253 123.904C87.9369 122.62 83.7928 120.582 82.5761 117.286C82.5072 116.999 82.4544 116.525 82.9126 116.657C84.1858 117.14 84.936 118.236 85.9903 119.076C87.4015 120.133 88.9139 121.105 90.4102 122.264C90.5805 122.466 91.2294 123.648 90.6698 123.601C88.4478 123.226 85.6094 121.298 84.0441 119.851C82.5641 118.506 81.5056 116.633 81.769 114.683C81.8704 114.598 81.8866 114.411 81.9717 114.512C83.2612 114.808 84.1817 116.106 85.1346 117.032C86.8702 118.68 88.9098 120.072 90.7629 121.448C91.1197 121.666 91.3793 123.003 90.6657 122.567Z" fill="white"/>
<path d="M67.9859 147.899C68.6671 148.708 68.6671 148.708 69.247 149.602C69.3322 149.703 69.7093 150.767 69.2512 150.635C67.7752 150.323 66.9074 149.499 65.7518 148.745C63.4567 147.049 61.2629 145.269 58.8503 143.845C58.4083 143.527 58.0515 143.309 57.5081 143.075C56.9486 143.028 56.9324 143.215 57.3743 143.534C57.3947 144.381 59.4181 145.959 60.0142 146.667C61.8187 148.602 63.9476 151.129 66.2589 152.638C66.2265 153.011 66.109 153.283 66.0766 153.656C64.8154 151.953 63.165 150.406 61.7011 148.874C60.4076 147.545 58.9599 145.827 57.3461 144.94C57.4636 144.668 57.565 144.583 57.6826 144.311C58.1976 145.951 61.3726 147.25 62.7148 148.02C64.2272 148.992 65.91 150.167 67.6414 150.782C67.6942 151.256 67.6618 151.629 67.7145 152.103C64.5517 149.583 61.7091 146.621 58.6638 143.83C58.6962 143.457 58.7286 143.084 58.761 142.711C61.5022 145.758 65.2205 147.291 68.282 149.896C68.4523 150.098 69.1174 151.093 68.5416 151.233C66.8468 151.278 65.3667 149.933 64.0245 149.163C61.5429 147.452 58.9396 144.98 56.1215 143.898C55.6633 143.766 55.2334 142.227 55.8619 142.562C57.9501 143.394 59.6857 145.043 61.4536 146.318C63.2216 147.593 65.7235 150.151 67.9941 149.966C68.0469 150.44 68.201 150.829 68.2537 151.303C65.1071 148.597 61.3036 146.963 58.4773 143.814C58.2218 143.511 57.9622 142.174 58.5745 142.695C61.5346 145.386 64.361 148.534 67.6252 150.968C67.8969 151.085 68.4282 152.538 67.6983 152.289C65.2371 151.425 63.0433 149.644 60.8172 148.237C59.2195 147.163 57.2326 146.245 56.6486 144.318C56.5797 144.031 56.6283 143.471 56.9851 143.689C58.5138 144.475 59.8925 145.905 61.1009 147.134C63.0068 148.984 64.9978 150.935 66.5996 153.042C66.7699 153.244 67.0457 154.394 66.4172 154.06C63.5625 152.318 61.2795 149.402 59.0492 146.961C57.7557 145.632 55.6795 143.579 55.7564 141.614C55.7726 141.427 55.7888 141.241 55.9753 141.256C57.7229 141.685 59.3043 142.944 60.8168 143.917C63.1119 145.612 65.9545 148.574 68.805 149.283C68.7726 149.656 68.7402 150.029 68.8092 150.316C68.4685 149.912 68.2293 149.422 67.8035 148.917C67.3777 148.412 67.3898 147.192 67.9859 147.899Z" fill="white"/>
<path d="M49.2467 18.6954C49.255 20.7623 47.9091 23.2789 47.0009 25.081C46.178 26.9842 45.424 29.1749 43.8022 30.5414C43.7009 30.6268 43.344 30.409 43.344 30.409C41.9653 28.9785 43.0396 26.3451 43.4733 24.5971C44.1746 21.9324 45.5812 17.6365 47.9815 15.9596C48.1842 15.7888 48.61 16.2941 48.5938 16.4806C49.2791 18.3225 47.7305 21.01 47.1264 22.5559C46.5224 24.1017 45.3023 28.4133 43.7291 29.2205C43.3399 29.3756 43.1168 28.6995 42.9465 28.4974C42.3625 26.57 43.303 24.395 44.2111 22.5929C45.0017 21.0627 46.2583 17.4116 48.0018 16.8066C48.391 16.6514 48.6993 17.4286 48.7682 17.7161C48.8778 19.6976 48.0549 21.6007 47.4347 23.333C46.5955 25.4227 44.8765 27.908 44.5807 30.2311C44.3252 29.9279 43.9846 29.5236 43.7291 29.2205C44.2642 27.3871 45.1723 25.585 46.1656 23.8839C47.244 22.284 48.1683 20.2954 49.7739 19.1153C50.1793 18.7737 50.6255 20.126 50.6093 20.3124C50.0742 22.1458 49.0647 24.0333 48.258 25.75C47.5688 27.1948 47.1351 28.9428 46.089 30.1698C45.7688 30.6125 45.1199 29.4311 45.2375 29.1592C45.5129 25.9892 48.0428 22.8206 49.4901 20.2185C49.8104 19.7758 50.5444 21.0583 50.3255 21.4156C49.4498 22.8448 48.8458 24.3906 47.9701 25.8198C47.6336 26.4489 47.2971 27.0781 46.4821 26.728C44.8682 25.8412 46.36 21.6463 46.5586 20.4421C46.7086 19.7972 47.544 20.9943 47.5115 21.3673C47.3171 23.6049 46.3321 27.3728 44.5928 29.0112C44.1873 29.3528 43.7939 28.4746 43.725 28.187C43.4126 26.3764 44.4059 24.6754 44.6531 22.9118C44.8193 22.0805 45.6708 23.0911 45.6222 23.6505C45.3912 25.2277 44.3818 27.1152 44.7265 28.5528C44.4711 28.2497 44.1142 28.0319 43.8588 27.7287C45.3954 26.2611 46.3642 22.6797 46.6438 20.5431C46.8992 20.8463 47.2561 21.0641 47.5967 21.4683C47.4305 22.2996 47.2643 23.1309 46.9968 24.0476C46.8306 24.8789 46.4617 25.881 47.1347 24.6227C48.0104 23.1935 48.6996 21.7487 49.4901 20.2185C49.8308 20.6228 49.9849 21.0114 50.3255 21.4156C49.5512 22.7594 48.6065 23.901 48.0187 25.2604C47.3457 26.5187 46.3362 28.4062 46.1214 29.7969C45.866 29.4937 45.5254 29.0895 45.2699 28.7863C46.2145 27.6447 46.8996 25.1664 47.6739 23.8227C48.3631 22.3779 49.255 20.7623 49.6725 19.2008C50.0132 19.605 50.1673 19.9936 50.5079 20.3979C49.105 21.4071 47.978 23.5665 47.1023 24.9956C46.0239 26.5956 45.3185 28.2269 44.7834 30.0603C44.5321 30.7905 43.7981 29.508 43.9318 29.0496C44.56 25.064 48.5455 21.3601 48.1559 17.1952C48.4114 17.4984 48.6668 17.8015 48.9223 18.1047C47.7546 18.5702 46.7127 20.8306 46.2425 21.9182C45.2492 23.6192 43.4978 26.4775 44.0818 28.4048C43.8264 28.1016 43.5547 27.9849 43.2992 27.6817C44.771 26.96 45.6384 23.464 46.1249 22.19C46.5952 21.1025 47.0654 20.015 47.3492 18.9118C47.4829 18.4535 48.2735 16.9233 48.1194 16.5347C48.2897 16.7368 48.5614 16.8535 48.7317 17.0557C47.2275 18.1503 46.2545 20.6983 45.4478 22.415C44.8438 23.9608 43.5829 26.5786 43.8101 28.2881C43.6602 28.9329 43.7615 28.8475 44.1142 28.0319C44.4345 27.5892 44.6534 27.2319 44.8886 26.6881C45.444 25.7017 45.9142 24.6142 46.3845 23.5266C47.0899 21.8954 48.4196 19.5652 48.3952 17.6848C48.2573 17.1098 49.194 18.2214 49.2467 18.6954Z" fill="white"/>
<path d="M-20.9222 92.1648C-13.6724 90.895 -6.61717 91.8628 -0.060435 95.3244C6.30978 98.7705 12.6638 102.403 19.9908 103.487C23.3319 103.956 28.7571 104.223 31.579 102.018C33.7117 101.258 34.2306 99.6111 32.7626 97.0461C33.9017 93.6669 32.9122 92.0812 29.7941 92.2891C28.4033 92.0784 25.6745 92.1311 24.3893 92.8685C20.059 95.1347 26.2789 94.9054 27.7873 94.8442C29.6686 94.8143 31.5662 94.5979 33.2407 93.7053C36.6749 92.0213 40.6197 86.6236 33.39 84.4202C32.0154 84.0231 30.1017 84.426 28.6785 84.5883C27.4418 84.7662 23.9669 84.7563 23.1236 85.8126C22.0776 87.0396 23.3305 86.6752 24.5509 86.6837C27.1784 86.7164 29.3921 85.0238 30.876 83.0822C31.7193 82.026 32.3923 80.7677 32.7936 79.3927C33.8517 76.9457 33.3204 75.4924 31.0132 75.017C23.1995 70.8864 17.6088 80.0904 11.8595 83.5524C6.51561 86.6726 -0.722039 86.7226 -6.65406 86.8822C-12.7726 87.026 -18.806 87.271 -24.9245 87.4149C-25.3989 87.469 -25.9302 86.0157 -25.3707 86.0626C-25.2693 85.9772 -25.1841 86.0783 -25.0828 85.9929C-24.6084 85.9388 -24.0771 87.3921 -24.6366 87.3451C-24.738 87.4305 -24.8232 87.3295 -24.9245 87.4149C-25.0786 87.0263 -25.2165 86.4512 -25.3707 86.0626C-15.8624 85.8276 -6.02969 86.1832 3.40548 84.6272C5.98019 84.1859 8.94413 83.5894 11.2268 82.1845C13.3068 80.9503 14.892 78.9233 16.7165 77.3859C20.2479 74.5831 25.2187 71.4315 30.0885 72.6855C34.9584 73.9394 34.7601 79.4638 32.4695 83.1221C30.7181 85.9804 27.4746 88.7134 23.7604 88.2139C22.5561 88.0189 20.9788 87.7926 20.8368 86.1841C20.4634 81.8327 34.8901 82.2922 37.1893 85.0208C41.362 89.9729 35.0614 95.4547 30.4026 96.0968C28.8781 96.3445 17.9952 96.1824 22.4875 92.0515C26.6595 88.3633 35.8072 91.1972 36.6429 96.7144C38.2574 106.241 22.0669 105.54 16.7551 103.967C10.7986 102.246 5.77057 99.5704 0.284331 96.7621C-6.18725 93.4015 -13.056 92.4493 -20.3057 93.7192C-20.9666 93.7576 -21.4979 92.3043 -20.9222 92.1648Z" fill="white"/>
</g>
<defs>
<clipPath id="clip0">
<rect width="129.645" height="139.704" fill="white" transform="matrix(-0.644365 -0.764718 -0.764718 0.644365 131.373 99.4994)"/>
</clipPath>
</defs>
</svg>
