<svg width="40" height="40" viewBox="0 0 40 40" fill="none" xmlns="http://www.w3.org/2000/svg">
<path d="M20 0C23.1023 0 26.0381 0.706762 28.6612 1.96738C27.5875 2.81685 26.5919 3.63235 25.6643 4.41726C23.8974 3.77506 21.9912 3.42508 20.0034 3.42508C15.4264 3.42508 11.281 5.28033 8.28406 8.28067C5.28372 11.281 3.42847 15.423 3.42847 20C3.42847 24.577 5.28372 28.719 8.28406 31.7193C11.2844 34.7197 15.4264 36.5749 20.0034 36.5749C24.5804 36.5749 28.7258 34.7197 31.7227 31.7193C34.7231 28.719 36.5783 24.577 36.5783 20C36.5783 18.9127 36.473 17.8457 36.2725 16.8162C37.1322 15.6949 38.0122 14.577 38.9127 13.4692C39.6194 15.5148 40.0034 17.7132 40.0034 20C40.0034 25.5216 37.7642 30.5233 34.1454 34.142C30.5267 37.7608 25.525 40 20.0034 40C14.4818 40 9.48012 37.7608 5.86137 34.142C2.23921 30.5233 0 25.5216 0 20C0 14.4784 2.23921 9.47672 5.85797 5.85797C9.47672 2.23921 14.4784 0 20 0ZM10.683 16.7142L15.5624 16.6497L15.9259 16.7448C16.9113 17.3123 17.8389 17.9613 18.7054 18.6952C19.3306 19.2253 19.9286 19.8029 20.4961 20.4281C22.246 17.6113 24.1115 15.0255 26.0822 12.647C28.2399 10.0408 30.5301 7.67584 32.9358 5.51818L33.4115 5.33469H38.736L37.6622 6.52735C34.3629 10.1937 31.3694 13.9823 28.6646 17.8899C25.9599 21.8009 23.5406 25.8376 21.3897 29.9932L20.7204 31.2844L20.1053 29.9694C18.9704 27.5331 17.6113 25.2973 15.9905 23.2994C14.3697 21.3014 12.4839 19.5277 10.2854 18.019L10.683 16.7142Z" fill="#00EFEC"/>
</svg>
