<svg width="22" height="22" viewBox="0 0 22 22" fill="none" xmlns="http://www.w3.org/2000/svg">
<path d="M2.65602 0.190063C4.09735 0.190063 5.31109 1.4038 5.31109 2.84513C5.31109 4.3623 4.02147 5.53814 2.65602 5.5002C1.25263 5.53814 0.000957495 4.3623 0.000957495 2.84513C-0.0369824 1.36586 1.17679 0.190063 2.65602 0.190063Z" fill="white"/>
<path d="M4.13537 21.8099H1.10099C0.683781 21.8099 0.342407 21.4686 0.342407 21.0514V7.77604C0.342407 7.35883 0.645841 7.01746 1.06305 7.01746H4.13532C4.55254 7.01746 4.89391 7.35883 4.89391 7.77604V21.0893C4.89395 21.4686 4.55258 21.8099 4.13537 21.8099Z" fill="white"/>
<path d="M21.9621 11.6448C21.9621 8.83798 19.8759 6.63806 17.0692 6.63806H16.2726C14.7555 6.63806 13.2762 7.35871 12.4797 8.53454C12.2142 8.80004 12.1004 8.91386 12.1004 8.91386V7.39669C12.1004 7.24497 11.8728 7.01737 11.721 7.01737H7.92808C7.77636 7.01737 7.54877 7.16909 7.54877 7.35875V21.5065C7.54877 21.6582 7.77636 21.8099 7.92808 21.8099H12.1003C12.252 21.8099 12.4796 21.6582 12.4796 21.5065V13.3136C12.4796 11.9103 13.5416 10.7344 14.945 10.6965C15.6657 10.6965 16.3105 10.962 16.8036 11.4551C17.2587 11.9103 17.4484 12.5551 17.4484 13.2757V21.4306C17.4484 21.5823 17.676 21.8099 17.8277 21.8099H21.6207C21.7724 21.8099 22 21.5823 22 21.4306V11.6448H21.9621Z" fill="white"/>
</svg>
