<svg width="22" height="19" viewBox="0 0 22 19" fill="none" xmlns="http://www.w3.org/2000/svg">
<path d="M8.20753 18.0254C7.25618 18.0254 6.27696 17.9483 5.29187 17.7939C3.55684 17.5217 1.80049 16.6141 1.3035 16.3424L0 15.6297L1.41125 15.1656C2.95393 14.6584 3.89236 14.3437 5.05403 13.8509C3.89085 13.2876 2.99438 12.2743 2.56285 10.9644L2.23454 9.96773L2.50377 10.0089C2.24847 9.75155 2.04689 9.49038 1.89062 9.25287C1.33488 8.40877 1.04065 7.37736 1.10326 6.49347L1.16502 5.62353L1.68585 5.82528C1.46614 5.41036 1.30736 4.96725 1.21404 4.50281C0.986603 3.37018 1.17694 2.16689 1.75014 1.11466L2.20383 0.281805L2.81059 1.0106C4.72958 3.3158 7.16017 4.68325 10.045 5.08356C9.92712 4.27135 10.0154 3.48751 10.3076 2.7849C10.6479 1.96682 11.2531 1.27311 12.0574 0.778631C12.9507 0.229605 14.034 -0.0364323 15.1077 0.0295314C16.2469 0.0995235 17.2812 0.526358 18.1026 1.26472C18.5038 1.16048 18.7993 1.0492 19.1988 0.898809C19.4392 0.80834 19.7117 0.705618 20.0528 0.588125L21.3096 0.155081L20.4901 2.49587C20.5441 2.49134 20.5998 2.48748 20.6581 2.48496L22.0002 2.4242L21.2069 3.50832C21.1614 3.57043 21.1499 3.58805 21.1337 3.61239C21.0698 3.70873 20.9902 3.82857 19.9014 5.28246C19.6288 5.64652 19.4927 6.12069 19.5181 6.61785C19.6146 8.50713 19.3828 10.2165 18.8287 11.6982C18.3047 13.1001 17.4926 14.3029 16.4154 15.2732C15.0824 16.4736 13.3826 17.2956 11.3631 17.7159C10.3724 17.922 9.30861 18.0254 8.20753 18.0254Z" fill="white"/>
</svg>
